<svg width="231" height="24" viewBox="0 0 231 24" fill="none" xmlns="http://www.w3.org/2000/svg">
<path fill-rule="evenodd" clip-rule="evenodd" d="M228.447 13.1056C228.263 13.4741 227.737 13.4741 227.553 13.1056L225.362 8.72361C225.196 8.39116 225.437 8 225.809 8L230.191 8C230.563 8 230.804 8.39116 230.638 8.72361L228.447 13.1056Z" fill="#424242"/>
<path d="M135.328 10.794C136.795 11.014 137.917 11.4467 138.694 12.092C139.486 12.7373 139.882 13.5587 139.882 14.556C139.882 15.9347 139.229 17.02 137.924 17.812C136.633 18.604 134.903 19 132.732 19H126.77V18.868L128.398 17.042V5.91L126.77 4.084V3.93H132.644C134.565 3.93 136.069 4.238 137.154 4.854C138.239 5.45533 138.782 6.306 138.782 7.406C138.782 8.18333 138.489 8.858 137.902 9.43C137.33 9.98733 136.472 10.442 135.328 10.794ZM131.852 10.618H132.908C133.069 10.618 133.245 10.6253 133.436 10.64C133.627 10.64 133.883 10.6473 134.206 10.662C134.573 10.2953 134.837 9.892 134.998 9.452C135.174 9.012 135.262 8.49867 135.262 7.912C135.262 6.92933 135.02 6.16667 134.536 5.624C134.067 5.08133 133.414 4.81 132.578 4.81H131.852V10.618ZM136.274 15.062C136.274 13.9327 135.959 13.06 135.328 12.444C134.712 11.8133 133.854 11.498 132.754 11.498H131.852V17.988C132.028 18.032 132.226 18.0687 132.446 18.098C132.666 18.1273 132.901 18.142 133.15 18.142C134.162 18.142 134.932 17.8853 135.46 17.372C136.003 16.844 136.274 16.074 136.274 15.062ZM145.68 11.014H145.768C146.193 10.0167 146.751 9.23933 147.44 8.682C148.144 8.12467 148.907 7.846 149.728 7.846L149.53 11.014C148.65 11.014 147.924 11.08 147.352 11.212C146.795 11.3293 146.274 11.5347 145.79 11.828V17.174L147.814 18.868V19H140.906V18.868L142.49 17.24V11.212L141.06 9.342V9.21L145.68 7.824V11.014ZM156.416 7.846C158.029 7.846 159.313 8.35933 160.266 9.386C161.234 10.398 161.718 11.7327 161.718 13.39C161.718 15.1353 161.19 16.5507 160.134 17.636C159.078 18.7067 157.707 19.242 156.02 19.242C154.407 19.242 153.116 18.736 152.148 17.724C151.195 16.6973 150.718 15.3627 150.718 13.72C150.718 11.9747 151.246 10.5593 152.302 9.474C153.373 8.38867 154.744 7.846 156.416 7.846ZM156.768 18.362C157.267 18.362 157.648 18.0833 157.912 17.526C158.176 16.9687 158.308 16.1473 158.308 15.062C158.308 13.302 158.051 11.806 157.538 10.574C157.039 9.342 156.416 8.726 155.668 8.726C155.169 8.726 154.788 9.00467 154.524 9.562C154.26 10.1193 154.128 10.9407 154.128 12.026C154.128 13.786 154.377 15.282 154.876 16.514C155.389 17.746 156.02 18.362 156.768 18.362ZM169.098 7.846C170.711 7.846 171.994 8.35933 172.948 9.386C173.916 10.398 174.4 11.7327 174.4 13.39C174.4 15.1353 173.872 16.5507 172.816 17.636C171.76 18.7067 170.388 19.242 168.702 19.242C167.088 19.242 165.798 18.736 164.83 17.724C163.876 16.6973 163.4 15.3627 163.4 13.72C163.4 11.9747 163.928 10.5593 164.984 9.474C166.054 8.38867 167.426 7.846 169.098 7.846ZM169.45 18.362C169.948 18.362 170.33 18.0833 170.594 17.526C170.858 16.9687 170.99 16.1473 170.99 15.062C170.99 13.302 170.733 11.806 170.22 10.574C169.721 9.342 169.098 8.726 168.35 8.726C167.851 8.726 167.47 9.00467 167.206 9.562C166.942 10.1193 166.81 10.9407 166.81 12.026C166.81 13.786 167.059 15.282 167.558 16.514C168.071 17.746 168.702 18.362 169.45 18.362ZM180.415 13.302L183.957 10.178L182.549 8.242V8.088H188.093V8.242L184.639 10.794L183.825 11.498L187.037 17.196L188.863 18.868V19H184.001L183.605 17.658L181.471 13.544L180.415 14.446V17.24L181.691 18.868V19H175.553V18.868L177.115 17.24V6.526L175.707 4.678V4.524L180.415 3.138V13.302ZM189.402 4.524L194.11 3.138V17.24L195.694 18.868V19H189.248V18.868L190.832 17.24V10.772L189.402 9.518V9.364L190.832 8.176V6.526L189.402 4.678V4.524ZM201.555 21.706L203.513 23.576V23.73H198.035V23.576L200.257 21.75L201.599 18.824L197.485 9.892L195.967 8.242V8.088H202.479V8.242L201.093 9.848L203.337 15.04L205.493 9.848L204.085 8.242V8.088H208.001V8.242L206.483 9.892L201.555 21.706ZM213.308 11.014V17.24L214.584 18.868V19H208.424V18.868L210.008 17.24V11.212L208.578 9.342V9.21L213.22 7.824V10.068H213.308C213.924 9.32 214.555 8.76267 215.2 8.396C215.845 8.02933 216.513 7.846 217.202 7.846C218.126 7.846 218.852 8.154 219.38 8.77C219.908 9.386 220.172 10.2367 220.172 11.322V17.24L221.756 18.868V19H215.596V18.868L216.872 17.24V11.96C216.872 11.344 216.747 10.882 216.498 10.574C216.263 10.266 215.904 10.112 215.42 10.112C215.068 10.112 214.709 10.1927 214.342 10.354C213.975 10.5007 213.631 10.7207 213.308 11.014Z" fill="#424242"/>
<path d="M1.36719 4.9082V19H6.10352C10.293 19 12.7539 16.3926 12.7539 11.9492C12.7539 7.51562 10.2832 4.9082 6.10352 4.9082H1.36719ZM3.125 6.49023H5.98633C9.18945 6.49023 10.957 8.44336 10.957 11.9688C10.957 15.4648 9.17969 17.418 5.98633 17.418H3.125V6.49023ZM21.336 16.0898C21.0528 17.0469 20.1055 17.7012 18.8165 17.7012C16.9903 17.7012 15.8477 16.4219 15.8477 14.4785V14.3809H23.1329V13.7363C23.1329 10.6602 21.4434 8.66797 18.6993 8.66797C15.8966 8.66797 14.0997 10.8066 14.0997 13.9609C14.0997 17.1543 15.8673 19.1758 18.7774 19.1758C20.9942 19.1758 22.713 17.8672 23.0059 16.0898H21.336ZM18.67 10.1426C20.2716 10.1426 21.336 11.3535 21.3751 13.0527H15.8575C15.9649 11.3633 17.0782 10.1426 18.67 10.1426ZM24.8595 19H26.5588V4.9082H24.8595V19ZM29.7112 7.03711C30.3069 7.03711 30.7756 6.55859 30.7756 5.97266C30.7756 5.37695 30.3069 4.9082 29.7112 4.9082C29.1252 4.9082 28.6467 5.37695 28.6467 5.97266C28.6467 6.55859 29.1252 7.03711 29.7112 7.03711ZM28.8616 19H30.5608V8.84375H28.8616V19ZM41.1058 8.84375H39.3382L36.5257 17.1934H36.4866L33.6839 8.84375H31.8968L35.637 19H37.3753L41.1058 8.84375ZM48.809 16.0898C48.5258 17.0469 47.5785 17.7012 46.2895 17.7012C44.4633 17.7012 43.3207 16.4219 43.3207 14.4785V14.3809H50.6059V13.7363C50.6059 10.6602 48.9164 8.66797 46.1723 8.66797C43.3695 8.66797 41.5727 10.8066 41.5727 13.9609C41.5727 17.1543 43.3402 19.1758 46.2504 19.1758C48.4672 19.1758 50.1859 17.8672 50.4789 16.0898H48.809ZM46.143 10.1426C47.7445 10.1426 48.809 11.3535 48.848 13.0527H43.3305C43.4379 11.3633 44.5512 10.1426 46.143 10.1426ZM52.2446 19H53.9438V12.6719C53.9438 11.2363 54.8032 10.2891 56.1216 10.2891C56.5317 10.2891 56.893 10.3379 57.0298 10.3867V8.73633C56.893 8.7168 56.6391 8.66797 56.3462 8.66797C55.1548 8.66797 54.2173 9.38086 53.8852 10.5039H53.8462V8.84375H52.2446V19ZM59.274 7.03711C59.8697 7.03711 60.3384 6.55859 60.3384 5.97266C60.3384 5.37695 59.8697 4.9082 59.274 4.9082C58.688 4.9082 58.2095 5.37695 58.2095 5.97266C58.2095 6.55859 58.688 7.03711 59.274 7.03711ZM58.4244 19H60.1236V8.84375H58.4244V19ZM62.3385 19H64.0377V13.0234C64.0377 11.3047 65.0827 10.1719 66.6842 10.1719C68.2467 10.1719 69.0182 11.0703 69.0182 12.7109V19H70.7174V12.4082C70.7174 10.1035 69.4284 8.66797 67.2018 8.66797C65.6295 8.66797 64.5455 9.37109 63.9791 10.4648H63.9401V8.84375H62.3385V19ZM76.9948 22.8281C79.7976 22.8281 81.5847 21.2168 81.5847 18.7949V8.84375H79.9636V10.5527H79.9343C79.2605 9.37109 78.0691 8.66797 76.6335 8.66797C74.0066 8.66797 72.3073 10.6992 72.3073 13.8828C72.3073 17.0371 74.0066 19.0781 76.5945 19.0781C78.0202 19.0781 79.2214 18.3555 79.8464 17.252H79.8855V18.8535C79.8855 20.3672 78.821 21.3828 77.0632 21.3828C75.7937 21.3828 74.7878 20.7676 74.4558 19.8398H72.7077C72.9909 21.5684 74.7585 22.8281 76.9948 22.8281ZM76.9362 17.584C75.1882 17.584 74.0456 16.1582 74.0456 13.8828C74.0456 11.6074 75.1882 10.1621 76.9362 10.1621C78.7038 10.1621 79.8855 11.6465 79.8855 13.8828C79.8855 16.1191 78.7038 17.584 76.9362 17.584ZM88.2899 6.39258V8.84375H86.7763V10.2402H88.2899V16.3633C88.2899 18.3164 89.0126 19.0781 90.8778 19.0781C91.2782 19.0781 91.747 19.0488 91.952 19V17.5742C91.8348 17.5938 91.4442 17.623 91.2489 17.623C90.3798 17.623 89.9891 17.2031 89.9891 16.2754V10.2402H91.9618V8.84375H89.9891V6.39258H88.2899ZM97.6142 19.1758C100.417 19.1758 102.311 17.1543 102.311 13.9219C102.311 10.6797 100.417 8.66797 97.6142 8.66797C94.8017 8.66797 92.9072 10.6797 92.9072 13.9219C92.9072 17.1543 94.8017 19.1758 97.6142 19.1758ZM97.6142 17.6816C95.8173 17.6816 94.6357 16.3145 94.6357 13.9219C94.6357 11.5293 95.8173 10.1621 97.6142 10.1621C99.4111 10.1621 100.583 11.5293 100.583 13.9219C100.583 16.3145 99.4111 17.6816 97.6142 17.6816Z" fill="#7E8389"/>
<g clip-path="url(#clip0_326_186)">
<path d="M121.796 12.0068L117.332 7.54306C117.06 7.27072 116.618 7.27072 116.346 7.54306C116.073 7.81547 116.073 8.25704 116.346 8.52944L119.619 11.8025H107.697C107.312 11.8025 107 12.1148 107 12.5C107 12.8851 107.312 13.1975 107.697 13.1975H119.619L116.346 16.4706C116.073 16.743 116.073 17.1845 116.346 17.4569C116.482 17.593 116.66 17.6612 116.839 17.6612C117.017 17.6612 117.196 17.593 117.332 17.4569L121.796 12.9932C122.068 12.7208 122.068 12.2792 121.796 12.0068Z" fill="#424242"/>
</g>
<defs>
<clipPath id="clip0_326_186">
<rect width="15" height="15" fill="white" transform="translate(107 5)"/>
</clipPath>
</defs>
</svg>
