<svg width="44" height="20" viewBox="0 0 44 20" fill="none" xmlns="http://www.w3.org/2000/svg">
<g filter="url(#filter0_d_484_28)">
<rect x="4" y="4.00003" width="36" height="12" rx="6" fill="#E92F48"/>
<path d="M12.4437 13.6372H12.971V12.877C14.0081 12.7979 14.8695 12.2222 14.8695 11.1631C14.8695 10.2403 14.2367 9.77444 13.1073 9.50198L12.971 9.47122V7.47171C13.5643 7.54642 13.9862 7.89359 14.0433 8.48685H14.8079C14.7772 7.51566 13.9862 6.87405 12.971 6.78177V6.02151H12.4437V6.78616C11.4022 6.87845 10.6595 7.50247 10.6595 8.4473C10.6595 9.31302 11.2484 9.80081 12.3426 10.0645L12.4437 10.0909V12.187C11.6834 12.1035 11.3451 11.6861 11.266 11.1367H10.5013C10.5321 12.1607 11.3978 12.7803 12.4437 12.8726V13.6372ZM11.4242 8.39456C11.4242 7.96829 11.7757 7.564 12.4437 7.4761V9.34378C11.6878 9.15921 11.4242 8.82523 11.4242 8.39456ZM12.9974 10.2227C13.8675 10.4336 14.1048 10.7412 14.1048 11.2246C14.1048 11.73 13.7884 12.1299 12.971 12.1914V10.2183L12.9974 10.2227ZM18.3534 13.1494C19.6498 13.1494 20.5331 12.253 20.5331 10.9478C20.5331 9.69095 19.6542 8.85599 18.5907 8.85599C17.9579 8.85599 17.4877 9.04935 17.1801 9.43167H17.1098L17.3075 7.36624H20.2079V6.65872H16.6879L16.3232 10.2842H17.0658C17.3163 9.814 17.7909 9.53714 18.393 9.53714C19.1928 9.53714 19.7421 10.1128 19.7421 10.9698C19.7421 11.8575 19.1928 12.4551 18.3622 12.4551C17.6152 12.4551 17.0702 12.0025 16.9999 11.3257H16.2221C16.2924 12.4112 17.1537 13.1494 18.3534 13.1494ZM22.0571 13.044C22.3735 13.044 22.6284 12.7847 22.6284 12.4727C22.6284 12.1563 22.3735 11.9014 22.0571 11.9014C21.7451 11.9014 21.4858 12.1563 21.4858 12.4727C21.4858 12.7847 21.7451 13.044 22.0571 13.044ZM25.8004 13.1494C27.2242 13.1494 28.0416 11.9453 28.0416 9.84036C28.0416 7.73978 27.211 6.50931 25.8004 6.50931C24.3809 6.50931 23.5504 7.73538 23.5504 9.82718C23.5504 11.9366 24.3721 13.1494 25.8004 13.1494ZM25.8004 12.4595C24.8643 12.4595 24.3458 11.5235 24.3458 9.82718C24.3458 8.15286 24.8731 7.20364 25.8004 7.20364C26.7276 7.20364 27.2462 8.14407 27.2462 9.82718C27.2462 11.5279 26.7364 12.4595 25.8004 12.4595ZM31.3893 13.1494C32.8131 13.1494 33.6305 11.9453 33.6305 9.84036C33.6305 7.73978 32.8 6.50931 31.3893 6.50931C29.9699 6.50931 29.1393 7.73538 29.1393 9.82718C29.1393 11.9366 29.9611 13.1494 31.3893 13.1494ZM31.3893 12.4595C30.4533 12.4595 29.9347 11.5235 29.9347 9.82718C29.9347 8.15286 30.4621 7.20364 31.3893 7.20364C32.3166 7.20364 32.8351 8.14407 32.8351 9.82718C32.8351 11.5279 32.3254 12.4595 31.3893 12.4595Z" fill="white"/>
</g>
<defs>
<filter id="filter0_d_484_28" x="0" y="3.05176e-05" width="44" height="20" filterUnits="userSpaceOnUse" color-interpolation-filters="sRGB">
<feFlood flood-opacity="0" result="BackgroundImageFix"/>
<feColorMatrix in="SourceAlpha" type="matrix" values="0 0 0 0 0 0 0 0 0 0 0 0 0 0 0 0 0 0 127 0" result="hardAlpha"/>
<feOffset/>
<feGaussianBlur stdDeviation="2"/>
<feColorMatrix type="matrix" values="0 0 0 0 0 0 0 0 0 0 0 0 0 0 0 0 0 0 0.25 0"/>
<feBlend mode="normal" in2="BackgroundImageFix" result="effect1_dropShadow_484_28"/>
<feBlend mode="normal" in="SourceGraphic" in2="effect1_dropShadow_484_28" result="shape"/>
</filter>
</defs>
</svg>
